<svg width="17" height="17" viewBox="0 0 17 17" fill="none" xmlns="http://www.w3.org/2000/svg">
<path d="M7.7093 2.58105H2.49096C2.09553 2.58105 1.7163 2.73814 1.43669 3.01775C1.15708 3.29735 1 3.67658 1 4.07201V14.5087C1 14.9041 1.15708 15.2834 1.43669 15.563C1.7163 15.8426 2.09553 15.9997 2.49096 15.9997H12.9276C13.3231 15.9997 13.7023 15.8426 13.9819 15.563C14.2615 15.2834 14.4186 14.9041 14.4186 14.5087V9.29036" stroke="#00AAAF" stroke-width="2" stroke-linecap="round" stroke-linejoin="round"/>
<path d="M13.3004 1.46318C13.597 1.16661 13.9992 1 14.4186 1C14.838 1 15.2403 1.16661 15.5369 1.46318C15.8334 1.75975 16 2.16198 16 2.5814C16 3.00081 15.8334 3.40304 15.5369 3.69961L8.45481 10.7817L5.4729 11.5271L6.21838 8.54522L13.3004 1.46318Z" stroke="#00AAAF" stroke-width="2" stroke-linecap="round" stroke-linejoin="round"/>
</svg>
