<svg width="63" height="63" viewBox="0 0 63 63" fill="none" xmlns="http://www.w3.org/2000/svg">
<path d="M31.5 63C14.0824 63 0 48.9176 0 31.5C0 14.0824 14.0824 0 31.5 0C48.9176 0 63 14.0824 63 31.5C63 48.9176 48.7324 63 31.5 63ZM31.5 3.70588C16.1206 3.70588 3.70588 16.1206 3.70588 31.5C3.70588 46.8794 16.1206 59.2941 31.5 59.2941C46.8794 59.2941 59.2941 46.8794 59.2941 31.5C59.2941 16.1206 46.6941 3.70588 31.5 3.70588Z" fill="#46494F"/>
<path d="M13.3423 54.291L10.007 52.8087C10.9334 50.5851 13.8981 49.2881 17.0481 47.8057C20.1981 46.3234 24.0893 44.6557 24.0893 42.6175V39.8381C22.9775 38.9116 21.1246 36.8734 20.754 33.9087C19.8275 32.9822 18.3452 31.3146 18.3452 29.091C18.3452 27.794 18.9011 26.6822 19.2717 25.941C18.9011 24.4587 18.5305 21.6793 18.5305 19.4557C18.5305 12.2293 23.5334 7.41162 31.5011 7.41162C33.7246 7.41162 36.504 7.9675 37.9864 9.63515C41.507 10.3763 44.4717 14.4528 44.4717 19.4557C44.4717 22.6057 43.9158 25.1999 43.5452 26.4969C43.9158 27.0528 44.2864 27.9793 44.2864 29.091C44.2864 31.4999 42.9893 33.1675 41.8776 33.9087C41.507 36.8734 39.8393 38.7263 38.7275 39.6528V42.6175C38.7275 44.2851 42.0628 45.5822 45.0275 46.694C48.5481 47.991 52.254 49.4734 53.5511 52.4381L50.0305 53.7351C49.4746 52.2528 46.5099 51.141 43.7305 50.2146C39.654 48.7322 35.0217 47.0646 35.0217 42.8028V37.9851L35.9481 37.4293C35.9481 37.4293 38.1717 35.9469 38.1717 32.9822V31.6852L39.2834 31.1293C39.4687 31.1293 40.3952 30.5734 40.3952 29.091C40.3952 28.7204 40.0246 28.1646 39.8393 27.9793L39.0981 27.2381L39.4687 26.3116C39.4687 26.3116 40.3952 23.3469 40.3952 19.641C40.3952 16.1204 38.357 13.5263 36.6893 13.5263H35.5775L35.0217 12.5999C35.0217 11.8587 33.7246 11.1175 31.5011 11.1175C25.757 11.1175 22.2364 14.2675 22.2364 19.4557C22.2364 21.8646 23.1628 25.941 23.1628 25.941L23.3481 26.8675L22.607 27.794C22.4217 27.794 22.0511 28.3499 22.0511 29.091C22.0511 30.0175 23.1628 31.1293 23.7187 31.4999L24.4599 32.0557V32.9822C24.4599 35.7616 26.8687 37.244 26.8687 37.4293L27.7952 37.9851V42.8028C27.7952 47.2499 22.9775 49.4734 18.5305 51.3263C16.4923 52.0675 13.7128 53.3646 13.3423 54.291Z" fill="#46494F"/>
</svg>
