<svg width="19" height="19" viewBox="0 0 19 19" fill="none" xmlns="http://www.w3.org/2000/svg">
<circle cx="9.5" cy="9.5" r="9.5" fill="#00AAAF"/>
<path d="M13.6562 6.13542H11.9739L11.5732 5.01224C11.5455 4.93538 11.4947 4.86895 11.4279 4.82201C11.361 4.77508 11.2813 4.74993 11.1996 4.75H7.40454C7.23755 4.75 7.08787 4.85514 7.03221 5.01224L6.63019 6.13542H4.9479C4.40115 6.13542 3.95831 6.57826 3.95831 7.125V12.7656C3.95831 13.3124 4.40115 13.7552 4.9479 13.7552H13.6562C14.203 13.7552 14.6458 13.3124 14.6458 12.7656V7.125C14.6458 6.57826 14.203 6.13542 13.6562 6.13542ZM13.7552 12.7656C13.7552 12.8201 13.7107 12.8646 13.6562 12.8646H4.9479C4.89347 12.8646 4.84894 12.8201 4.84894 12.7656V7.125C4.84894 7.07057 4.89347 7.02604 4.9479 7.02604H7.25734L7.46886 6.43477L7.75213 5.64063H10.8508L11.134 6.43477L11.3456 7.02604H13.6562C13.7107 7.02604 13.7552 7.07057 13.7552 7.125V12.7656ZM9.30206 7.81771C8.20857 7.81771 7.3229 8.70339 7.3229 9.79687C7.3229 10.8904 8.20857 11.776 9.30206 11.776C10.3956 11.776 11.2812 10.8904 11.2812 9.79687C11.2812 8.70339 10.3956 7.81771 9.30206 7.81771ZM9.30206 10.9844C8.64646 10.9844 8.11456 10.4525 8.11456 9.79687C8.11456 9.14128 8.64646 8.60937 9.30206 8.60937C9.95766 8.60937 10.4896 9.14128 10.4896 9.79687C10.4896 10.4525 9.95766 10.9844 9.30206 10.9844Z" fill="white"/>
</svg>
